<svg xmlns="http://www.w3.org/2000/svg" width="180" height="48" viewBox="0 0 180 48" role="img" aria-labelledby="logoTitle logoDesc">
  <title id="logoTitle">Vadali Media</title>
  <desc id="logoDesc">Stylised V flame mark with Vadali Media logotype</desc>
  <defs>
    <linearGradient id="logoGradient" x1="0%" y1="0%" x2="100%" y2="100%">
      <stop offset="0%" stop-color="#ff4d4f"/>
      <stop offset="100%" stop-color="#ffb347"/>
    </linearGradient>
    <linearGradient id="sparkGradient" x1="0%" y1="0%" x2="100%" y2="100%">
      <stop offset="0%" stop-color="#ffe066"/>
      <stop offset="100%" stop-color="#ff9330"/>
    </linearGradient>
  </defs>
  <g transform="translate(8,6)">
    <path d="M28 36c-6.6-4.8-10-11-10-17.2 0-4.6 1.8-8.8 5-12.1l5-5 5 5c3.2 3.3 5 7.5 5 12.1 0 6.2-3.4 12.4-10 17.2z" fill="url(#logoGradient)"/>
    <path d="M28 10.5c1.8 2 2.8 4.5 2.8 7.3 0 3.7-2 7.3-5.8 10.3-3.8-3-5.8-6.6-5.8-10.3 0-2.8 1-5.3 2.8-7.3l3-3z" fill="#fff" opacity="0.2"/>
    <circle cx="38" cy="6.5" r="4.5" fill="url(#sparkGradient)" />
  </g>
  <g transform="translate(58,12)">
    <text x="0" y="19" font-family="Poppins, 'Segoe UI', Arial, sans-serif" font-size="20" font-weight="700" letter-spacing="0.12em" fill="#0c1a3a">VADALI</text>
    <text x="2" y="34" font-family="Poppins, 'Segoe UI', Arial, sans-serif" font-size="10" font-weight="500" letter-spacing="0.32em" fill="#ff6b3d">MEDIA</text>
  </g>
</svg>
